<?xml version="1.0" encoding="UTF-8" standalone="no"?>
<!DOCTYPE svg PUBLIC "-//W3C//DTD SVG 1.1//EN"
 "http://www.w3.org/Graphics/SVG/1.1/DTD/svg11.dtd">
<!-- Generated by graphviz version 2.43.0 (0)
 -->
<!-- Title: %3 Pages: 1 -->
<svg width="965pt" height="836pt"
 viewBox="0.00 0.00 964.50 836.00" xmlns="http://www.w3.org/2000/svg" xmlns:xlink="http://www.w3.org/1999/xlink">
<g id="graph0" class="graph" transform="scale(1 1) rotate(0) translate(4 832)">
<title>%3</title>
<polygon fill="white" stroke="transparent" points="-4,4 -4,-832 960.5,-832 960.5,4 -4,4"/>
<!-- 4438407760192660893 -->
<g id="node1" class="node">
<title>4438407760192660893</title>
<polygon fill="none" stroke="black" points="442,-828 272,-828 272,-792 442,-792 442,-828"/>
<text text-anchor="middle" x="357" y="-805" font-family="Helvetica,sans-Serif" font-size="20.00">Max(Projection)</text>
</g>
<!-- &#45;3150871274790215797 -->
<g id="node2" class="node">
<title>&#45;3150871274790215797</title>
<polygon fill="none" stroke="black" points="509,-756 205,-756 205,-720 509,-720 509,-756"/>
<text text-anchor="middle" x="357" y="-733" font-family="Helvetica,sans-Serif" font-size="20.00">Projection(Assign, DepDelay)</text>
</g>
<!-- &#45;3150871274790215797&#45;&gt;4438407760192660893 -->
<g id="edge1" class="edge">
<title>&#45;3150871274790215797&#45;&gt;4438407760192660893</title>
<path fill="none" stroke="black" d="M357,-756.3C357,-764.02 357,-773.29 357,-781.89"/>
<polygon fill="black" stroke="black" points="353.5,-781.9 357,-791.9 360.5,-781.9 353.5,-781.9"/>
</g>
<!-- 7493685635699808982 -->
<g id="node3" class="node">
<title>7493685635699808982</title>
<polygon fill="none" stroke="black" points="524,-684 190,-684 190,-648 524,-648 524,-684"/>
<text text-anchor="middle" x="357" y="-661" font-family="Helvetica,sans-Serif" font-size="20.00">Assign(Assign, DepDelay, Fillna)</text>
</g>
<!-- 7493685635699808982&#45;&gt;&#45;3150871274790215797 -->
<g id="edge2" class="edge">
<title>7493685635699808982&#45;&gt;&#45;3150871274790215797</title>
<path fill="none" stroke="black" d="M357,-684.3C357,-692.02 357,-701.29 357,-709.89"/>
<polygon fill="black" stroke="black" points="353.5,-709.9 357,-719.9 360.5,-709.9 353.5,-709.9"/>
</g>
<!-- 6488586915026115650 -->
<g id="node4" class="node">
<title>6488586915026115650</title>
<polygon fill="none" stroke="black" points="536.5,-612 357.5,-612 357.5,-576 536.5,-576 536.5,-612"/>
<text text-anchor="middle" x="447" y="-589" font-family="Helvetica,sans-Serif" font-size="20.00">Fillna(Projection)</text>
</g>
<!-- 6488586915026115650&#45;&gt;7493685635699808982 -->
<g id="edge3" class="edge">
<title>6488586915026115650&#45;&gt;7493685635699808982</title>
<path fill="none" stroke="black" d="M424.75,-612.3C413.42,-621.12 399.47,-631.97 387.18,-641.53"/>
<polygon fill="black" stroke="black" points="384.74,-638.99 378.99,-647.9 389.03,-644.52 384.74,-638.99"/>
</g>
<!-- 3406410878451758950 -->
<g id="node5" class="node">
<title>3406410878451758950</title>
<polygon fill="none" stroke="black" points="630,-540 326,-540 326,-504 630,-504 630,-540"/>
<text text-anchor="middle" x="478" y="-517" font-family="Helvetica,sans-Serif" font-size="20.00">Projection(Assign, DepDelay)</text>
</g>
<!-- 3406410878451758950&#45;&gt;6488586915026115650 -->
<g id="edge5" class="edge">
<title>3406410878451758950&#45;&gt;6488586915026115650</title>
<path fill="none" stroke="black" d="M470.34,-540.3C466.81,-548.27 462.54,-557.9 458.63,-566.74"/>
<polygon fill="black" stroke="black" points="455.42,-565.33 454.57,-575.9 461.82,-568.17 455.42,-565.33"/>
</g>
<!-- 1038965568272214838 -->
<g id="node6" class="node">
<title>1038965568272214838</title>
<polygon fill="none" stroke="black" points="572,-468 204,-468 204,-432 572,-432 572,-468"/>
<text text-anchor="middle" x="388" y="-445" font-family="Helvetica,sans-Serif" font-size="20.00">Assign(Assign, Date, MapPartitions)</text>
</g>
<!-- 1038965568272214838&#45;&gt;7493685635699808982 -->
<g id="edge4" class="edge">
<title>1038965568272214838&#45;&gt;7493685635699808982</title>
<path fill="none" stroke="black" d="M352.83,-468.06C339.02,-476.75 324.65,-488.74 317,-504 294.7,-548.48 320.71,-606.25 339.99,-639.11"/>
<polygon fill="black" stroke="black" points="337.02,-640.96 345.2,-647.69 343,-637.32 337.02,-640.96"/>
</g>
<!-- 1038965568272214838&#45;&gt;3406410878451758950 -->
<g id="edge6" class="edge">
<title>1038965568272214838&#45;&gt;3406410878451758950</title>
<path fill="none" stroke="black" d="M410.25,-468.3C421.58,-477.12 435.53,-487.97 447.82,-497.53"/>
<polygon fill="black" stroke="black" points="445.97,-500.52 456.01,-503.9 450.26,-494.99 445.97,-500.52"/>
</g>
<!-- 1658371160759612519 -->
<g id="node7" class="node">
<title>1658371160759612519</title>
<polygon fill="none" stroke="black" points="575.5,-396 344.5,-396 344.5,-360 575.5,-360 575.5,-396"/>
<text text-anchor="middle" x="460" y="-373" font-family="Helvetica,sans-Serif" font-size="20.00">MapPartitions(Assign)</text>
</g>
<!-- 1658371160759612519&#45;&gt;1038965568272214838 -->
<g id="edge8" class="edge">
<title>1658371160759612519&#45;&gt;1038965568272214838</title>
<path fill="none" stroke="black" d="M442.2,-396.3C433.4,-404.86 422.62,-415.34 413,-424.7"/>
<polygon fill="black" stroke="black" points="410.32,-422.42 405.59,-431.9 415.2,-427.43 410.32,-422.42"/>
</g>
<!-- &#45;1366934865053243460 -->
<g id="node8" class="node">
<title>&#45;1366934865053243460</title>
<polygon fill="none" stroke="black" points="776,-324 0,-324 0,-288 776,-288 776,-324"/>
<text text-anchor="middle" x="388" y="-301" font-family="Helvetica,sans-Serif" font-size="20.00">Assign(ReadCSV, Year, Projection, Month, Projection, DayofMonth, Projection)</text>
</g>
<!-- &#45;1366934865053243460&#45;&gt;1038965568272214838 -->
<g id="edge7" class="edge">
<title>&#45;1366934865053243460&#45;&gt;1038965568272214838</title>
<path fill="none" stroke="black" d="M364.25,-324.09C353.45,-333.35 341.8,-345.8 336,-360 329.95,-374.81 329.95,-381.19 336,-396 340.49,-406.98 348.47,-416.92 356.85,-425.14"/>
<polygon fill="black" stroke="black" points="354.51,-427.74 364.25,-431.91 359.24,-422.58 354.51,-427.74"/>
</g>
<!-- &#45;1366934865053243460&#45;&gt;1658371160759612519 -->
<g id="edge9" class="edge">
<title>&#45;1366934865053243460&#45;&gt;1658371160759612519</title>
<path fill="none" stroke="black" d="M405.8,-324.3C414.6,-332.86 425.38,-343.34 435,-352.7"/>
<polygon fill="black" stroke="black" points="432.8,-355.43 442.41,-359.9 437.68,-350.42 432.8,-355.43"/>
</g>
<!-- &#45;1205464253559002402 -->
<g id="node9" class="node">
<title>&#45;1205464253559002402</title>
<polygon fill="none" stroke="black" points="394,-252 62,-252 62,-216 394,-216 394,-252"/>
<text text-anchor="middle" x="228" y="-229" font-family="Helvetica,sans-Serif" font-size="20.00">Projection(AsType, DayofMonth)</text>
</g>
<!-- &#45;1205464253559002402&#45;&gt;&#45;1366934865053243460 -->
<g id="edge12" class="edge">
<title>&#45;1205464253559002402&#45;&gt;&#45;1366934865053243460</title>
<path fill="none" stroke="black" d="M267.14,-252.12C289.01,-261.69 316.46,-273.7 339.66,-283.85"/>
<polygon fill="black" stroke="black" points="338.42,-287.13 348.99,-287.93 341.23,-280.72 338.42,-287.13"/>
</g>
<!-- &#45;1950612737414742511 -->
<g id="node10" class="node">
<title>&#45;1950612737414742511</title>
<polygon fill="none" stroke="black" points="592.5,-180 393.5,-180 393.5,-144 592.5,-144 592.5,-180"/>
<text text-anchor="middle" x="493" y="-157" font-family="Helvetica,sans-Serif" font-size="20.00">AsType(Projection)</text>
</g>
<!-- &#45;1950612737414742511&#45;&gt;&#45;1205464253559002402 -->
<g id="edge14" class="edge">
<title>&#45;1950612737414742511&#45;&gt;&#45;1205464253559002402</title>
<path fill="none" stroke="black" d="M428.51,-180.03C390.52,-190.07 342.29,-202.81 302.66,-213.28"/>
<polygon fill="black" stroke="black" points="301.55,-209.95 292.78,-215.89 303.34,-216.72 301.55,-209.95"/>
</g>
<!-- &#45;267239925238762798 -->
<g id="node13" class="node">
<title>&#45;267239925238762798</title>
<polygon fill="none" stroke="black" points="685.5,-252 412.5,-252 412.5,-216 685.5,-216 685.5,-252"/>
<text text-anchor="middle" x="549" y="-229" font-family="Helvetica,sans-Serif" font-size="20.00">Projection(AsType, Month)</text>
</g>
<!-- &#45;1950612737414742511&#45;&gt;&#45;267239925238762798 -->
<g id="edge17" class="edge">
<title>&#45;1950612737414742511&#45;&gt;&#45;267239925238762798</title>
<path fill="none" stroke="black" d="M506.84,-180.3C513.49,-188.61 521.58,-198.72 528.89,-207.86"/>
<polygon fill="black" stroke="black" points="526.34,-210.27 535.32,-215.9 531.8,-205.9 526.34,-210.27"/>
</g>
<!-- &#45;8889163196203387252 -->
<g id="node14" class="node">
<title>&#45;8889163196203387252</title>
<polygon fill="none" stroke="black" points="956.5,-252 703.5,-252 703.5,-216 956.5,-216 956.5,-252"/>
<text text-anchor="middle" x="830" y="-229" font-family="Helvetica,sans-Serif" font-size="20.00">Projection(AsType, Year)</text>
</g>
<!-- &#45;1950612737414742511&#45;&gt;&#45;8889163196203387252 -->
<g id="edge18" class="edge">
<title>&#45;1950612737414742511&#45;&gt;&#45;8889163196203387252</title>
<path fill="none" stroke="black" d="M575.01,-180.03C624.23,-190.26 686.97,-203.29 737.9,-213.87"/>
<polygon fill="black" stroke="black" points="737.41,-217.34 747.92,-215.95 738.84,-210.49 737.41,-217.34"/>
</g>
<!-- 7542909541229908276 -->
<g id="node11" class="node">
<title>7542909541229908276</title>
<polygon fill="none" stroke="black" points="700.5,-108 173.5,-108 173.5,-72 700.5,-72 700.5,-108"/>
<text text-anchor="middle" x="437" y="-85" font-family="Helvetica,sans-Serif" font-size="20.00">Projection(ReadCSV, [&#39;Year&#39;, &#39;Month&#39;, &#39;DayofMonth&#39;])</text>
</g>
<!-- 7542909541229908276&#45;&gt;&#45;1950612737414742511 -->
<g id="edge15" class="edge">
<title>7542909541229908276&#45;&gt;&#45;1950612737414742511</title>
<path fill="none" stroke="black" d="M450.84,-108.3C457.49,-116.61 465.58,-126.72 472.89,-135.86"/>
<polygon fill="black" stroke="black" points="470.34,-138.27 479.32,-143.9 475.8,-133.9 470.34,-138.27"/>
</g>
<!-- 392047811654048695 -->
<g id="node12" class="node">
<title>392047811654048695</title>
<polygon fill="none" stroke="black" points="233.5,-36 126.5,-36 126.5,0 233.5,0 233.5,-36"/>
<text text-anchor="middle" x="180" y="-13" font-family="Helvetica,sans-Serif" font-size="20.00">ReadCSV</text>
</g>
<!-- 392047811654048695&#45;&gt;&#45;1366934865053243460 -->
<g id="edge13" class="edge">
<title>392047811654048695&#45;&gt;&#45;1366934865053243460</title>
<path fill="none" stroke="black" d="M157.36,-36.28C106.57,-77.08 -7.44,-181.24 53,-252 66.03,-267.26 95.87,-278.15 132.65,-285.91"/>
<polygon fill="black" stroke="black" points="132.17,-289.39 142.67,-287.92 133.55,-282.53 132.17,-289.39"/>
</g>
<!-- 392047811654048695&#45;&gt;7542909541229908276 -->
<g id="edge16" class="edge">
<title>392047811654048695&#45;&gt;7542909541229908276</title>
<path fill="none" stroke="black" d="M233.56,-33.59C271.56,-43.94 322.99,-57.95 364.64,-69.29"/>
<polygon fill="black" stroke="black" points="363.88,-72.71 374.45,-71.96 365.72,-65.96 363.88,-72.71"/>
</g>
<!-- &#45;267239925238762798&#45;&gt;&#45;1366934865053243460 -->
<g id="edge10" class="edge">
<title>&#45;267239925238762798&#45;&gt;&#45;1366934865053243460</title>
<path fill="none" stroke="black" d="M509.61,-252.12C487.61,-261.69 459.99,-273.7 436.64,-283.85"/>
<polygon fill="black" stroke="black" points="435.03,-280.73 427.26,-287.93 437.82,-287.15 435.03,-280.73"/>
</g>
<!-- &#45;8889163196203387252&#45;&gt;&#45;1366934865053243460 -->
<g id="edge11" class="edge">
<title>&#45;8889163196203387252&#45;&gt;&#45;1366934865053243460</title>
<path fill="none" stroke="black" d="M722.44,-252.03C656.94,-262.41 573.19,-275.67 505.89,-286.33"/>
<polygon fill="black" stroke="black" points="504.99,-282.93 495.66,-287.95 506.08,-289.84 504.99,-282.93"/>
</g>
</g>
</svg>
