<?xml version="1.0" encoding="UTF-8" standalone="no"?>
<!DOCTYPE svg PUBLIC "-//W3C//DTD SVG 1.1//EN"
 "http://www.w3.org/Graphics/SVG/1.1/DTD/svg11.dtd">
<!-- Generated by graphviz version 2.43.0 (0)
 -->
<!-- Title: %3 Pages: 1 -->
<svg width="467pt" height="404pt"
 viewBox="0.00 0.00 467.00 404.00" xmlns="http://www.w3.org/2000/svg" xmlns:xlink="http://www.w3.org/1999/xlink">
<g id="graph0" class="graph" transform="scale(1 1) rotate(0) translate(4 400)">
<title>%3</title>
<polygon fill="white" stroke="transparent" points="-4,4 -4,-400 463,-400 463,4 -4,4"/>
<!-- &#45;8640829193056335320 -->
<g id="node1" class="node">
<title>&#45;8640829193056335320</title>
<polygon fill="none" stroke="black" points="264.5,-396 94.5,-396 94.5,-360 264.5,-360 264.5,-396"/>
<text text-anchor="middle" x="179.5" y="-373" font-family="Helvetica,sans-Serif" font-size="20.00">Max(Projection)</text>
</g>
<!-- &#45;6515212825417034406 -->
<g id="node2" class="node">
<title>&#45;6515212825417034406</title>
<polygon fill="none" stroke="black" points="331.5,-324 27.5,-324 27.5,-288 331.5,-288 331.5,-324"/>
<text text-anchor="middle" x="179.5" y="-301" font-family="Helvetica,sans-Serif" font-size="20.00">Projection(Assign, DepDelay)</text>
</g>
<!-- &#45;6515212825417034406&#45;&gt;&#45;8640829193056335320 -->
<g id="edge1" class="edge">
<title>&#45;6515212825417034406&#45;&gt;&#45;8640829193056335320</title>
<path fill="none" stroke="black" d="M179.5,-324.3C179.5,-332.02 179.5,-341.29 179.5,-349.89"/>
<polygon fill="black" stroke="black" points="176,-349.9 179.5,-359.9 183,-349.9 176,-349.9"/>
</g>
<!-- &#45;4257101000172261143 -->
<g id="node3" class="node">
<title>&#45;4257101000172261143</title>
<polygon fill="none" stroke="black" points="359,-252 0,-252 0,-216 359,-216 359,-252"/>
<text text-anchor="middle" x="179.5" y="-229" font-family="Helvetica,sans-Serif" font-size="20.00">Assign(ReadCSV, DepDelay, Fillna)</text>
</g>
<!-- &#45;4257101000172261143&#45;&gt;&#45;6515212825417034406 -->
<g id="edge2" class="edge">
<title>&#45;4257101000172261143&#45;&gt;&#45;6515212825417034406</title>
<path fill="none" stroke="black" d="M179.5,-252.3C179.5,-260.02 179.5,-269.29 179.5,-277.89"/>
<polygon fill="black" stroke="black" points="176,-277.9 179.5,-287.9 183,-277.9 176,-277.9"/>
</g>
<!-- &#45;152399036121995206 -->
<g id="node4" class="node">
<title>&#45;152399036121995206</title>
<polygon fill="none" stroke="black" points="347,-180 168,-180 168,-144 347,-144 347,-180"/>
<text text-anchor="middle" x="257.5" y="-157" font-family="Helvetica,sans-Serif" font-size="20.00">Fillna(Projection)</text>
</g>
<!-- &#45;152399036121995206&#45;&gt;&#45;4257101000172261143 -->
<g id="edge4" class="edge">
<title>&#45;152399036121995206&#45;&gt;&#45;4257101000172261143</title>
<path fill="none" stroke="black" d="M238.22,-180.3C228.58,-188.95 216.77,-199.55 206.27,-208.97"/>
<polygon fill="black" stroke="black" points="203.66,-206.61 198.56,-215.9 208.34,-211.82 203.66,-206.61"/>
</g>
<!-- &#45;1190665264207925699 -->
<g id="node5" class="node">
<title>&#45;1190665264207925699</title>
<polygon fill="none" stroke="black" points="459,-108 130,-108 130,-72 459,-72 459,-108"/>
<text text-anchor="middle" x="294.5" y="-85" font-family="Helvetica,sans-Serif" font-size="20.00">Projection(ReadCSV, DepDelay)</text>
</g>
<!-- &#45;1190665264207925699&#45;&gt;&#45;152399036121995206 -->
<g id="edge5" class="edge">
<title>&#45;1190665264207925699&#45;&gt;&#45;152399036121995206</title>
<path fill="none" stroke="black" d="M285.35,-108.3C281.1,-116.36 275.94,-126.11 271.23,-135.02"/>
<polygon fill="black" stroke="black" points="268.12,-133.42 266.54,-143.9 274.31,-136.69 268.12,-133.42"/>
</g>
<!-- &#45;6120548621839001248 -->
<g id="node6" class="node">
<title>&#45;6120548621839001248</title>
<polygon fill="none" stroke="black" points="252,-36 145,-36 145,0 252,0 252,-36"/>
<text text-anchor="middle" x="198.5" y="-13" font-family="Helvetica,sans-Serif" font-size="20.00">ReadCSV</text>
</g>
<!-- &#45;6120548621839001248&#45;&gt;&#45;4257101000172261143 -->
<g id="edge3" class="edge">
<title>&#45;6120548621839001248&#45;&gt;&#45;4257101000172261143</title>
<path fill="none" stroke="black" d="M159.23,-36.1C144.63,-44.63 129.66,-56.49 121.5,-72 97.52,-117.63 132.68,-175.36 157.84,-207.83"/>
<polygon fill="black" stroke="black" points="155.31,-210.28 164.29,-215.9 160.78,-205.91 155.31,-210.28"/>
</g>
<!-- &#45;6120548621839001248&#45;&gt;&#45;1190665264207925699 -->
<g id="edge6" class="edge">
<title>&#45;6120548621839001248&#45;&gt;&#45;1190665264207925699</title>
<path fill="none" stroke="black" d="M222.23,-36.3C234.44,-45.2 249.49,-56.18 262.68,-65.8"/>
<polygon fill="black" stroke="black" points="260.9,-68.83 271.04,-71.9 265.02,-63.18 260.9,-68.83"/>
</g>
</g>
</svg>
